<svg xmlns="http://www.w3.org/2000/svg" viewBox="0 0 512 512">
  <!-- Waves (base) -->
  <path d="M 50 380 Q 100 360 150 380 T 250 380 T 350 380 T 450 380"
        stroke="#0EA5E9" stroke-width="24" fill="none" opacity="0.6" stroke-linecap="round"/>
  <path d="M 50 410 Q 100 390 150 410 T 250 410 T 350 410 T 450 410"
        stroke="#0EA5E9" stroke-width="20" fill="none" opacity="0.4" stroke-linecap="round"/>

  <!-- Boat hull -->
  <path d="M 180 260 L 150 300 Q 180 320 256 320 Q 332 320 362 300 L 332 260 Z"
        fill="#0EA5E9"/>

  <!-- Boat cabin -->
  <rect x="230" y="200" width="52" height="60" rx="5" fill="#0EA5E9"/>

  <!-- Boat windshield (lighter blue) -->
  <rect x="240" y="210" width="32" height="30" rx="3" fill="#38BDF8"/>

  <!-- Boat details (white accents) -->
  <rect x="235" y="245" width="42" height="3" rx="1.5" fill="#ffffff" opacity="0.8"/>

  <!-- Anchor on boat -->
  <g transform="translate(256, 140)">
    <circle cx="0" cy="-22" r="10" fill="#0EA5E9"/>
    <path d="M 0 -12 L 0 28 M -18 13 L 0 28 L 18 13"
          stroke="#0EA5E9" stroke-width="8" fill="none" stroke-linecap="round" stroke-linejoin="round"/>
    <line x1="-12" y1="0" x2="12" y2="0" stroke="#0EA5E9" stroke-width="6" stroke-linecap="round"/>
  </g>
</svg>